<svg width="32" height="32" viewBox="0 0 32 32" fill="none" xmlns="http://www.w3.org/2000/svg">
<rect width="32" height="32" fill="#3C61E4"/>
<circle cx="16" cy="16" r="16" fill="white"/>
<path d="M9.77832 18.6426C9.77832 18.1445 9.60254 17.7637 9.25098 17.5C8.89941 17.2305 8.2666 16.9492 7.35254 16.6562C6.43848 16.3574 5.71484 16.0645 5.18164 15.7773C3.72852 14.9922 3.00195 13.9346 3.00195 12.6045C3.00195 11.9131 3.19531 11.2979 3.58203 10.7588C3.97461 10.2139 4.53418 9.78906 5.26074 9.48438C5.99316 9.17969 6.81348 9.02734 7.72168 9.02734C8.63574 9.02734 9.4502 9.19434 10.165 9.52832C10.8799 9.85645 11.4336 10.3223 11.8262 10.9258C12.2246 11.5293 12.4238 12.2148 12.4238 12.9824H9.78711C9.78711 12.3965 9.60254 11.9424 9.2334 11.6201C8.86426 11.292 8.3457 11.1279 7.67773 11.1279C7.0332 11.1279 6.53223 11.2656 6.1748 11.541C5.81738 11.8105 5.63867 12.168 5.63867 12.6133C5.63867 13.0293 5.84668 13.3779 6.2627 13.6592C6.68457 13.9404 7.30273 14.2041 8.11719 14.4502C9.61719 14.9014 10.71 15.4609 11.3955 16.1289C12.0811 16.7969 12.4238 17.6289 12.4238 18.625C12.4238 19.7324 12.0049 20.6025 11.167 21.2354C10.3291 21.8623 9.20117 22.1758 7.7832 22.1758C6.79883 22.1758 5.90234 21.9971 5.09375 21.6396C4.28516 21.2764 3.66699 20.7812 3.23926 20.1543C2.81738 19.5273 2.60645 18.8008 2.60645 17.9746H5.25195C5.25195 19.3867 6.0957 20.0928 7.7832 20.0928C8.41016 20.0928 8.89941 19.9668 9.25098 19.7148C9.60254 19.457 9.77832 19.0996 9.77832 18.6426ZM17.6621 9.20312L20.9492 18.4844L24.2188 9.20312H27.6816V22H25.0361V18.502L25.2998 12.4639L21.8457 22H20.0352L16.5898 12.4727L16.8535 18.502V22H14.2168V9.20312H17.6621Z" fill="#312C2C"/>
</svg>
